<svg id="visual" viewBox="0 0 900 600" width="900" height="600" xmlns="http://www.w3.org/2000/svg" xmlns:xlink="http://www.w3.org/1999/xlink" version="1.1"><rect x="0" y="0" width="900" height="600" fill="#76664e"></rect><path d="M0 445L30 425.2C60 405.3 120 365.7 180 335.7C240 305.7 300 285.3 360 302.8C420 320.3 480 375.7 540 395.8C600 416 660 401 720 377C780 353 840 320 870 303.5L900 287L900 601L870 601C840 601 780 601 720 601C660 601 600 601 540 601C480 601 420 601 360 601C300 601 240 601 180 601C120 601 60 601 30 601L0 601Z" fill="#001122" stroke-linecap="round" stroke-linejoin="miter"></path></svg>