<svg id="visual" viewBox="0 0 900 900" width="900" height="900" xmlns="http://www.w3.org/2000/svg" xmlns:xlink="http://www.w3.org/1999/xlink" version="1.1"><rect x="0" y="0" width="900" height="900" fill="#76664e"></rect><path d="M0 224L30 245.2C60 266.3 120 308.7 180 343.7C240 378.7 300 406.3 360 386.7C420 367 480 300 540 298.2C600 296.3 660 359.7 720 394.3C780 429 840 435 870 438L900 441L900 0L870 0C840 0 780 0 720 0C660 0 600 0 540 0C480 0 420 0 360 0C300 0 240 0 180 0C120 0 60 0 30 0L0 0Z" fill="#001122" stroke-linecap="round" stroke-linejoin="miter"></path></svg>